Coordinates
version=1
nRows=13
nColumns=40
inDegrees=yes

Units are S.I. units (second, meters, Newtons, ...)
Angles are in degrees.

endheader
time	pelvis_tilt	pelvis_list	pelvis_rotation	pelvis_tx	pelvis_ty	pelvis_tz	hip_flexion_r	hip_adduction_r	hip_rotation_r	knee_angle_r	knee_angle_r_beta	ankle_angle_r	subtalar_angle_r	mtp_angle_r	hip_flexion_l	hip_adduction_l	hip_rotation_l	knee_angle_l	knee_angle_l_beta	ankle_angle_l	subtalar_angle_l	mtp_angle_l	lumbar_extension	lumbar_bending	lumbar_rotation	arm_flex_r	arm_add_r	arm_rot_r	elbow_flex_r	pro_sup_r	wrist_flex_r	wrist_dev_r	arm_flex_l	arm_add_l	arm_rot_l	elbow_flex_l	pro_sup_l	wrist_flex_l	wrist_dev_l
     54.30000000	     -3.43620568	     -6.08009578	      1.13834822	      1.17978173	      0.92633856	      0.50824093	     11.43987916	      3.42608024	    -13.43061361	     20.31733538	     20.31733538	     13.49240223	      0.41334758	     -2.58435038	     27.81214572	    -14.81122198	      2.93847130	     66.69561068	     66.69561068	      5.57403425	    -17.41662971	      8.39920183	     -9.71544959	      5.29456249	      1.24628259	     12.66214549	    -17.33933790	     -3.47023815	     66.23555451	     45.70236828	      0.00000000	      0.00000000	      7.42718227	     -9.00317452	    -13.29220427	     26.75022270	     45.94443006	      0.00000000	      0.00000000
     54.31342857	     -3.41938466	     -6.06538460	      1.71036598	      1.17872754	      0.92700156	      0.50872714	     10.87918382	      3.52365298	    -13.58969958	     19.88125962	     19.88125962	     13.53662452	      0.01499278	     -2.37509942	     29.13288708	    -15.00259772	      2.50885213	     65.18123782	     65.18123782	      6.08748106	    -18.21354515	      9.01993956	     -9.82700791	      5.23616544	      1.11319186	     14.47717359	    -17.34224023	     -3.87647205	     69.11342396	     45.62285013	      0.00000000	      0.00000000	      6.57736883	     -9.18545035	    -13.49936446	     26.51408371	     45.97951535	      0.00000000	      0.00000000
     54.32685714	     -3.42789855	     -6.06470273	      2.26162766	      1.17766257	      0.92754891	      0.50915212	     10.37728972	      3.61979107	    -13.79643682	     19.50423274	     19.50423274	     13.55668335	     -0.33026184	     -2.29877779	     30.39804880	    -15.15744596	      2.03140232	     63.53595258	     63.53595258	      7.11618739	    -18.66147773	     10.87078035	     -9.98022915	      5.23461979	      1.46046327	     15.62032314	    -17.78798083	     -4.51166222	     73.23966687	     45.50599287	      0.00000000	      0.00000000	      5.80832989	     -9.19360282	    -13.91359973	     26.90959402	     46.05855146	      0.00000000	      0.00000000
     54.34028571	     -3.37967729	     -6.03612083	      2.82906275	      1.17663465	      0.92823025	      0.50946178	      9.77169727	      3.69016495	    -14.03976339	     19.04191064	     19.04191064	     13.57150534	     -0.57005040	     -2.21915651	     31.40267485	    -15.25937734	      1.44800016	     61.53561123	     61.53561123	      7.92505569	    -18.93176882	     12.17220350	    -10.14104951	      5.19817723	      1.42207582	     17.52133352	    -17.75268755	     -5.13126060	     75.89363116	     45.44583260	      0.00000000	      0.00000000	      5.03660813	     -9.34954729	    -14.07616491	     26.70842906	     46.08539255	      0.00000000	      0.00000000
     54.35371429	     -3.42362584	     -5.96471813	      3.33965439	      1.17543714	      0.92877298	      0.50955995	      9.34107378	      3.68392924	    -14.23566780	     18.69710998	     18.69710998	     13.51621588	     -0.83787441	     -2.31189022	     32.38739491	    -15.15264346	      0.93177874	     59.36590293	     59.36590293	      9.26322704	    -19.06144854	     14.86374619	    -10.30907886	      5.12776091	      1.96614052	     18.68625950	    -18.20471914	     -6.13976395	     79.62136854	     45.36119870	      0.00000000	      0.00000000	      4.45422137	     -9.30891756	    -14.43078779	     27.16213004	     46.15878608	      0.00000000	      0.00000000
     54.36714286	     -3.56304665	     -5.88251565	      3.83992649	      1.17416611	      0.92915355	      0.50944330	      9.04112639	      3.63024467	    -14.48435445	     18.40029716	     18.40029716	     13.52789306	     -1.01962038	     -2.24687550	     33.24109844	    -14.96976111	      0.37267299	     56.77146172	     56.77146172	      9.74380850	    -19.15048284	     15.23943717	    -10.24506156	      5.03381781	      2.22695736	     20.75546103	    -18.52775040	     -6.54991841	     80.91099497	     45.34197838	      0.00000000	      0.00000000	      3.96742956	     -9.32735475	    -14.45650278	     26.94065981	     46.15771651	      0.00000000	      0.00000000
     54.38057143	     -3.56745987	     -5.79417210	      4.39298642	      1.17293383	      0.92976921	      0.50905739	      8.50838353	      3.59307197	    -14.75141983	     17.93805683	     17.93805683	     13.49059248	     -1.19448184	     -2.19114582	     33.78437453	    -14.59284243	      0.02423573	     53.90155731	     53.90155731	     10.29436008	    -19.15315474	     15.97636837	    -10.44891311	      4.99749578	      1.92798493	     22.67221097	    -18.16467978	     -6.97938380	     83.86933703	     45.26881859	      0.00000000	      0.00000000	      3.14283461	     -9.46294337	    -14.59460733	     26.87826227	     46.17361336	      0.00000000	      0.00000000
     54.39400000	     -3.72766126	     -5.67391264	      4.89996189	      1.17153596	      0.93005894	      0.50834001	      8.21957552	      3.45704694	    -15.04312635	     17.61634204	     17.61634204	     13.48545699	     -1.30148916	     -2.25937320	     34.34043479	    -13.98731818	     -0.11105436	     50.81767687	     50.81767687	     10.66087061	    -19.09506435	     16.37425507	    -10.46893286	      4.93162432	      2.13085276	     24.26670908	    -18.33358121	     -7.48702831	     86.65584788	     45.20461390	      0.00000000	      0.00000000	      2.53179985	     -9.41822240	    -14.78472006	     27.21866548	     46.20066031	      0.00000000	      0.00000000
     54.40742857	     -3.92492118	     -5.48861114	      5.37374119	      1.17009699	      0.93027228	      0.50737948	      7.97752010	      3.22185954	    -15.33016648	     17.32923314	     17.32923314	     13.47835233	     -1.33384497	     -2.43010741	     34.72453828	    -13.17515806	     -0.02773314	     47.49388094	     47.49388094	     10.63212399	    -18.96825232	     15.96910439	    -10.49242961	      4.75538453	      2.53944633	     25.60984349	    -18.68055363	     -8.10964129	     89.40040021	     45.14830835	      0.00000000	      0.00000000	      2.05529729	     -9.28624620	    -15.00891195	     27.73156583	     46.23860954	      0.00000000	      0.00000000
     54.42085714	     -4.15184098	     -5.32413517	      5.82965368	      1.16858085	      0.93034812	      0.50620773	      7.78143508	      2.99829326	    -15.59143260	     17.06272185	     17.06272185	     13.52610768	     -1.45313228	     -2.43913312	     35.03459334	    -12.24767889	      0.38799761	     44.11364929	     44.11364929	     10.63072511	    -18.69790440	     15.96884770	    -10.41281488	      4.60824867	      2.65172163	     27.53440634	    -18.75736948	     -8.36170687	     90.93009252	     45.11732640	      0.00000000	      0.00000000	      1.64292020	     -9.19502938	    -15.03694729	     27.62137015	     46.23870351	      0.00000000	      0.00000000
     54.43428571	     -4.35819479	     -5.19028810	      6.28069578	      1.16714319	      0.93022955	      0.50474778	      7.52592046	      2.76998244	    -16.02387377	     16.75106165	     16.75106165	     13.56851367	     -1.25267827	     -2.70723680	     35.12688136	    -11.33753283	      0.96156209	     40.57344096	     40.57344096	      9.70403158	    -18.27772152	     13.45498751	    -10.41783656	      4.54949509	      2.92478481	     28.95022310	    -18.98831482	     -8.67754473	     93.74431212	     45.05734118	      0.00000000	      0.00000000	      1.12383478	     -8.98265157	    -15.30376231	     28.16075219	     46.28383131	      0.00000000	      0.00000000
     54.44771429	     -4.66035115	     -5.10646150	      6.67006769	      1.16568512	      0.92981674	      0.50325893	      7.40860960	      2.61143796	    -16.22267307	     16.49489484	     16.49489484	     13.70574104	     -1.35590682	     -2.73166003	     35.37563486	    -10.48602341	      1.76323908	     37.43915867	     37.43915867	      9.78993621	    -17.21622194	     13.57284688	    -10.21861615	      4.48425804	      3.14841825	     30.78726808	    -19.19343287	     -8.85370703	     94.74601358	     45.04021848	      0.00000000	      0.00000000	      0.83918988	     -8.79952988	    -15.29751258	     28.04148954	     46.27877159	      0.00000000	      0.00000000
     54.46114286	     -4.72908798	     -4.93567664	      7.03756132	      1.16455662	      0.92964116	      0.50162506	      6.91778505	      2.39411191	    -16.50542843	     16.09069195	     16.09069195	     13.92029367	     -1.19893919	     -2.81917436	     35.17535871	     -9.64254946	      2.56395997	     34.36570243	     34.36570243	      9.66510618	    -16.03833818	     13.29700361	    -10.31970039	      4.34717610	      3.06887234	     32.52795598	    -18.90235363	     -8.73204272	     96.54032935	     44.98960236	      0.00000000	      0.00000000	      0.37362417	     -8.70978533	    -15.34274515	     27.91868859	     46.28046486	      0.00000000	      0.00000000
